name E:\Dropbox\SEL\BOX\Experiment\240124_SUB1_PJH\c3d\XYZ\UpDown_TrcMot\15_10_trial1_D1_ExtLoadAPP1.mot
datacolumns 37
datarows 13
range 8.985 8.997
endheader

time	    ground_force1_vx	    ground_force1_vy	    ground_force1_vz	    ground_force1_px	    ground_force1_py	    ground_force1_pz	    ground_torque1_x	    ground_torque1_y	    ground_torque1_z	    ground_force2_vx	    ground_force2_vy	    ground_force2_vz	    ground_force2_px	    ground_force2_py	    ground_force2_pz	    ground_torque2_x	    ground_torque2_y	    ground_torque2_z	      hand_force3_vx	      hand_force3_vy	      hand_force3_vz	      hand_force3_px	      hand_force3_py	      hand_force3_pz	      hand_torque3_x	      hand_torque3_y	      hand_torque3_z	      hand_force4_vx	      hand_force4_vy	      hand_force4_vz	      hand_force4_px	      hand_force4_py	      hand_force4_pz	      hand_torque4_x	      hand_torque4_y	      hand_torque4_z	
8.985	         37.77613015	        409.51254452	        -20.47866616	          0.22922719	          0.00000000	          0.29286162	          0.00000000	         -4.25316483	          0.00000000	        -38.86687902	        404.26888308	        -13.91549951	          0.57935485	          0.00000000	          0.26590220	          0.00000000	          3.55320820	          0.00000000	         -9.39264238	        -62.94812214	         22.32349664	          0.21237682	          0.85292494	          0.03726792	          0.00079400	         -0.56866967	          0.09159706	         11.05551015	        -60.77856602	         19.33110108	          0.60265269	          0.85292494	          0.03497571	         -0.00036063	          0.26753346	         -0.04330774	
8.986	         37.68910235	        409.41226193	        -20.46101016	          0.22923118	          0.00000000	          0.29284928	          0.00000000	         -4.24485340	          0.00000000	        -38.91160950	        404.42356371	        -13.94012094	          0.57937428	          0.00000000	          0.26595765	          0.00000000	          3.56205940	          0.00000000	         -9.37841214	        -62.90503878	         22.29929269	          0.21232023	          0.85214757	          0.03762479	          0.00079297	         -0.56127843	          0.09053112	         11.05358700	        -60.75486713	         19.33159898	          0.60266653	          0.85214757	          0.03524784	         -0.00036270	          0.26386033	         -0.04277838	
8.987	         37.60226780	        409.31993114	        -20.44387342	          0.22923559	          0.00000000	          0.29283786	          0.00000000	         -4.23664660	          0.00000000	        -38.95577487	        404.57562265	        -13.96785381	          0.57939335	          0.00000000	          0.26601396	          0.00000000	          3.57060231	          0.00000000	         -9.36328462	        -62.86162797	         22.27281030	          0.21226616	          0.85136858	          0.03797820	          0.00079189	         -0.55371090	          0.08943191	         11.05299623	        -60.73043170	         19.33200043	          0.60267876	          0.85136858	          0.03551942	         -0.00036494	          0.26015534	         -0.04224087	
8.988	         37.51562546	        409.23503734	        -20.42712760	          0.22924040	          0.00000000	          0.29282731	          0.00000000	         -4.22854600	          0.00000000	        -38.99942562	        404.72505194	        -13.99864813	          0.57941206	          0.00000000	          0.26607114	          0.00000000	          3.57882928	          0.00000000	         -9.34724259	        -62.81795058	         22.24405614	          0.21221457	          0.85058795	          0.03832804	          0.00079072	         -0.54597149	          0.08830032	         11.05371157	        -60.70540919	         19.33230200	          0.60268937	          0.85058795	          0.03579051	         -0.00036731	          0.25641669	         -0.04169503	
8.989	         37.42917296	        409.15703497	        -20.41064229	          0.22924561	          0.00000000	          0.29281755	          0.00000000	         -4.22055291	          0.00000000	        -39.04261336	        404.87186863	        -14.03244642	          0.57943041	          0.00000000	          0.26612917	          0.00000000	          3.58673346	          0.00000000	         -9.33027179	        -62.77406683	         22.21303945	          0.21216543	          0.84980568	          0.03867421	          0.00078945	         -0.53806533	          0.08713737	         11.05570287	        -60.67994853	         19.33249703	          0.60269833	          0.84980568	          0.03606117	         -0.00036981	          0.25264279	         -0.04114075	
8.99	         37.34290682	        409.08534923	        -20.39428570	          0.22925119	          0.00000000	          0.29280850	          0.00000000	         -4.21266843	          0.00000000	        -39.08539056	        405.01611454	        -14.06918408	          0.57944841	          0.00000000	          0.26618805	          0.00000000	          3.59430883	          0.00000000	         -9.31236085	        -62.73003614	         22.17977226	          0.21211868	          0.84902176	          0.03901660	          0.00078809	         -0.52999828	          0.08594418	         11.05893619	        -60.65419731	         19.33257570	          0.60270561	          0.84902176	          0.03633146	         -0.00037240	          0.24883224	         -0.04057791	
8.991	         37.25682270	        409.01937783	        -20.37792550	          0.22925713	          0.00000000	          0.29280010	          0.00000000	         -4.20489342	          0.00000000	        -39.12781032	        405.15785603	        -14.10878962	          0.57946606	          0.00000000	          0.26624777	          0.00000000	          3.60155020	          0.00000000	         -9.29350126	        -62.68591691	         22.14426945	          0.21207427	          0.84823617	          0.03935509	          0.00078661	         -0.52177684	          0.08472195	         11.06337373	        -60.62830100	         19.33252516	          0.60271120	          0.84823617	          0.03660140	         -0.00037506	          0.24498388	         -0.04000644	
8.992	         37.17091564	        408.95849281	        -20.36142952	          0.22926340	          0.00000000	          0.29279227	          0.00000000	         -4.19722851	          0.00000000	        -39.16992604	        405.29718358	        -14.15118504	          0.57948336	          0.00000000	          0.26630833	          0.00000000	          3.60845323	          0.00000000	         -9.27368738	        -62.64176640	         22.10654895	          0.21203215	          0.84744890	          0.03968956	          0.00078502	         -0.51340817	          0.08347200	         11.06897395	        -60.60240219	         19.33232967	          0.60271506	          0.84744890	          0.03687104	         -0.00037778	          0.24109675	         -0.03942626	
8.993	         37.08518024	        408.90204258	        -20.34466654	          0.22926999	          0.00000000	          0.29278495	          0.00000000	         -4.18967413	          0.00000000	        -39.21179125	        405.43421136	        -14.19628616	          0.57950031	          0.00000000	          0.26636972	          0.00000000	          3.61501446	          0.00000000	         -9.25291634	        -62.59764067	         22.06663189	          0.21199226	          0.84665994	          0.04001990	          0.00078330	         -0.50490001	          0.08219570	         11.07569158	        -60.57663989	         19.33197069	          0.60271717	          0.84665994	          0.03714038	         -0.00038052	          0.23717006	         -0.03883734	
8.994	         36.99961098	        408.84935412	        -20.32750701	          0.22927687	          0.00000000	          0.29277807	          0.00000000	         -4.18223048	          0.00000000	        -39.25345928	        405.56907664	        -14.24400293	          0.57951692	          0.00000000	          0.26643193	          0.00000000	          3.62123130	          0.00000000	         -9.23118806	        -62.55359446	         22.02454270	          0.21195453	          0.84586928	          0.04034597	          0.00078147	         -0.49626066	          0.08089451	         11.08347771	        -60.55114888	         19.33142709	          0.60271752	          0.84586928	          0.03740944	         -0.00038328	          0.23320324	         -0.03823966	
8.995	         36.91420239	        408.79973522	        -20.30982379	          0.22928404	          0.00000000	          0.29277154	          0.00000000	         -4.17489754	          0.00000000	        -39.29498302	        405.70193918	        -14.29423981	          0.57953318	          0.00000000	          0.26649495	          0.00000000	          3.62710206	          0.00000000	         -9.20850516	        -62.50968121	         21.98030931	          0.21191889	          0.84507692	          0.04066766	          0.00077951	         -0.48749895	          0.07956999	         11.09227992	        -60.52605906	         19.33067526	          0.60271606	          0.84507692	          0.03767821	         -0.00038601	          0.22919589	         -0.03763323	
8.996	         36.82894932	        408.75247703	        -20.29149281	          0.22929146	          0.00000000	          0.29276532	          0.00000000	         -4.16767508	          0.00000000	        -39.33641466	        405.83298047	        -14.34689607	          0.57954910	          0.00000000	          0.26655877	          0.00000000	          3.63262595	          0.00000000	         -9.18487295	        -62.46595304	         21.93396324	          0.21188527	          0.84428283	          0.04098484	          0.00077743	         -0.47862417	          0.07822373	         11.10204237	        -60.50149491	         19.32968934	          0.60271279	          0.84428283	          0.03794668	         -0.00038872	          0.22514777	         -0.03701806	
8.997	         36.74384720	        408.70685656	        -20.27239376	          0.22929911	          0.00000000	          0.29275932	          0.00000000	         -4.16056268	          0.00000000	        -39.37780543	        405.96240291	        -14.40186619	          0.57956467	          0.00000000	          0.26662338	          0.00000000	          3.63780307	          0.00000000	         -9.16029935	        -62.42246081	         21.88553973	          0.21185360	          0.84348701	          0.04129738	          0.00077524	         -0.46964605	          0.07685741	         11.11270595	        -60.47757498	         19.32844135	          0.60270767	          0.84348701	          0.03821484	         -0.00039136	          0.22105883	         -0.03639419	
